<?xml version="1.0" encoding="utf-8"?>
<!-- Generator: Adobe Illustrator 18.1.0, SVG Export Plug-In . SVG Version: 6.00 Build 0)  -->
<svg version="1.1" id="圖層_1" xmlns="http://www.w3.org/2000/svg" xmlns:xlink="http://www.w3.org/1999/xlink" x="0px" y="0px"
	 viewBox="0 0 1000 369" enable-background="new 0 0 1000 369" xml:space="preserve">
<g>
	<defs>
		<rect id="SVGID_4_" width="1000" height="369.1"/>
	</defs>
	<clipPath id="SVGID_1_">
		<use xlink:href="#SVGID_4_"  overflow="visible"/>
	</clipPath>
	<rect x="-60.3" y="-21.7" clip-path="url(#SVGID_1_)" fill="#212F3A" width="1092.7" height="441.3"/>
	<g clip-path="url(#SVGID_1_)">
		<g>
			<g>
				
					<linearGradient id="SVGID_2_" gradientUnits="userSpaceOnUse" x1="793.6316" y1="-186.2925" x2="793.6316" y2="426.163" gradientTransform="matrix(0.9709 0.2396 -0.2396 0.9709 71.2521 -263.7671)">
					<stop  offset="0" style="stop-color:#E2DCC3"/>
					<stop  offset="0.212" style="stop-color:#DED8C0"/>
					<stop  offset="0.4114" style="stop-color:#D3CEB9"/>
					<stop  offset="0.6059" style="stop-color:#C0BCAC"/>
					<stop  offset="0.7974" style="stop-color:#A5A399"/>
					<stop  offset="0.9849" style="stop-color:#838382"/>
					<stop  offset="1" style="stop-color:#808080"/>
				</linearGradient>
				<path fill="url(#SVGID_2_)" d="M1110.4,116.2c-40.5,164.2-206.5,264.5-370.8,223.9s-264.5-206.5-224-370.7
					C556.2-194.7,722.2-295,886.4-254.5S1150.9-48,1110.4,116.2z"/>
				<g>
					<path opacity="0.3" fill="#4A4A4A" d="M734.2,81.3c-8.6-7.7-14.9-15.7-13.8-28.9c1-11.8-4.4-14.1-16.4-14.7
						c-9.9-0.5-23.3,2.8-24.3-14.8c-0.3-5.5-6.4-10.3-12.2-8.8c-1.4,0.4-2.8,0.5-4.1,0.6c0.9-0.2,1.9-0.5,2.9-0.9
						c5-2.4,7-6.7,4.5-11.6c-3.1-5.8-1.5-10.7,1-15.8c1-4.9-1.5-7.6-5.6-9.9c-2.8-1.6-5.8-5.5-0.3-7c7.1-2,13-5,17.3-11.1
						c1.7-2.4,4.7-3.6,6.9-1.2c8.4,9.3,16.2,5.6,23.3-1.3c3.3-3.2,6.8-4.1,10.9-3.6c9.1,1.1,18.8-1.2,27.1,0.4
						c12.9,2.4,20.9-4.2,29.2-10.2c11.8-8.5,11.6-16.3,0.4-25.3c-6.5-5.2-10-10.9-8.4-19.2c8.7-12,7.3-24.6,2.7-37.6
						c-0.8-2.1-0.7-4.6-0.3-7c1.7-10.2-2.2-16.5-12.4-19.8c-7.8-2.6-15.6-6.3-15.3-16.8c-3-3.8-6.7-2.8-10.7-2.1
						c-14.3,2.6-27.2,9.2-41.2,12.7c-14.8,3.7-25.1,12.2-28.5,27.7c-5.1,2.1-7.7,11.5-14.2,7.6c-5.1-3,2.7-8.6,1.1-13.4
						c-0.3-0.8-0.9-1.5-1.6-2.1c-1-0.9-2-1.8-2.9-2.8c-8.6-5.4-17.3-9.8-27.5-3.8c-15.4,20.4-30.8,40.8-46.3,61.2
						c-2.9,5-5.9,10.1-8.8,15.1c4.3,4.1,5.4,8.2,1.2,13.4c-2.7,3.4-4.5,8-1.9,12c5.1,7.9-0.7,13.2-5.3,15.8
						c-6.8,3.8-8.7,8.5-8.9,15.4c-0.2,5.6-1.7,11.1-3,16.5c-2,7.2,5.4,14.6,2,20.5c-7,12-1.2,23.3-0.6,34.9c0.5,2.9,0.9,5.8,1.3,8.7
						c15.7,15.4,23.4,35.1,29.5,55.5c0.9,1.9,2.2,3.5,4,4.6c16.5,0.1,33.1,0.8,49.5-1.9c2.4,0.7,5.1,0.8,6.9,3
						c1.2,0.4,2.4,0.7,3.6,1c-0.4,0.1-0.8,0.1-1.3,0.2c-3.1,5.7-5.5,11.8-9,17.3c2.8,9-2.8,19.4,4.6,27.6
						c12.8,1.3,16.9,28.3,35.7,11.8c9.2-8,4.4-15.2,0.7-22.5c10.6-5.2,14.9-16.5,18.9-25.7c5.2-12,10.1-18.1,23.9-17.6
						C727.9,107.4,736.2,92,734.2,81.3z M632-9.5c1-2,3-4,4.7-4.5c2.4-0.7,2.4,3.2,3.3,4.5c4.1,7,7.6,14.3,13.5,20.3
						c1.6,1.6,3.2,2.7,4.8,3.3c-5.8-1.2-11.1-4.4-17-5.2c-2.7,0.4-5.3,0.7-6.3-2.6C633.5,1.2,629.2-3.6,632-9.5z M653.9,116.8
						c1.1-0.1,2.3-0.2,3.4-0.4c-0.2,1-0.3,2.1-0.5,3.1C656.1,118.3,655.1,117.4,653.9,116.8z"/>
					<path opacity="0.3" fill="#4A4A4A" d="M1089,34.1c-4.1-27.1-8.3-54.2-12.4-81.3c-2.2-3.7-2.3-8.7-7-10.7
						c-8.1-1.2-8.8,4.7-10.1,10.3c-2.7,11.8-2.4,23.8-3.2,35.7c-0.2,2.6,0.8,6-2.7,7.3c-4.1,1.5-5.7-1.8-7.4-4.5
						c-5.1-8.1-13.2-11.4-21.9-13.6c-16.5,1.6-21.4,16.3-29.8,26.8c-5.4,6.8-12,13.4-10.5,23.4c1.3,5.8,7.5,7.3,10.1,11.9
						c4.6,6,10.1,10.9,12.9,18.7c3.5,9.9,20.8,15.9,27.6,10.2c7.9-6.7,12.5-17.1,24.5-19c2.7-0.4,4.2-7.7,8.2-5.2
						c4.6,2.9,3,7.8,1.3,12.9c-4,12.1,1.4,17,14.6,14.5c1.9-4,3.9-7.9,5-12.2C1089.4,51,1089.4,42.6,1089,34.1z"/>
					<path opacity="0.3" fill="#4A4A4A" d="M1007-51.8c2.6,1.1,0.7,5.2,3.5,6.3c4.7,6.8,10.5,12.3,18,16c4.4,0.8,9.1,4.3,12.6-1.7
						c2.6-4.6,3.9-9.3,2.5-14.1c3.3-5.9,6.5-11.8,9.8-17.7c0.5,0.1,1,0.1,1.5,0c0.9-0.2,1.8-0.5,2.7-0.7c2.7-2.6,4.6-6,8.2-7.5
						c2.3-9-7.4-15.1-6-23.9c-11.7-15.5-23.4-31.1-35-46.6c-7.4,0.2-8.4,3.6-5.5,9.8c1.5,3.3,4.1,5.9,6.5,7.7
						c4.4,3.5,7.5,8.4,5.8,12.6c-2,5-6.9,9.9-13.7,8.7c-4.2-0.7-7.3,0.2-10,3.2c-6.6,3.7-6.8,11-9.5,16.8c-0.4,1.6-0.2,3,0.8,4.4
						C1005.9-70.8,1011-62.7,1007-51.8z"/>
					<path opacity="0.3" fill="#4A4A4A" d="M950.4,81.9c-2.4,9.1,1.6,17.1,3,25.5c4.2,8,10.5,10.8,19.2,8.1c1.2-0.6,2.4-1.2,3.5-1.8
						c2.9-4.1,5.8-8.2,8.7-12.3c-3.1-10.5-6.3-21-9.4-31.6C960.2,63.9,954.4,66.9,950.4,81.9z"/>
					<path opacity="0.3" fill="#4A4A4A" d="M778.2,114.2c2.7-3.6,1.3-7.3-0.3-10.7c-7.8-17.1-13.5-35.4-28.4-48.4
						c-3.2,5-6.3,9.9-9.5,14.9c-3.1,10.4,23.9,22.6-2,31.6c-9.4,6.1-18.9,12.3-28.3,18.4c11.3,15.9,19.6,41,34.5,45.9
						c27.5,8.9,30.4-16.5,30.8-37.8C776.1,123.4,777.2,118.8,778.2,114.2z"/>
					<path opacity="0.3" fill="#4A4A4A" d="M977.9,12.4c7.5-10.2,30.1-18,5.3-33.4c3.6-6.8,7.1-13.6,10.7-20.4
						c-7.7-7.8-15.5-15.5-23.2-23.3c-0.2-10.9-7-8.7-13.1-6c-5.6,2.6-11.1,4.8-17.1,5.7c0.2-0.8,0.3-1.7,0.1-2.6
						c-2.7-4.5-1.9-10-3.8-14.4c-6.6-15.3-7.6-34.4-27-41.3l-0.1,0.1c-2.6-2.5-2.8-5.2-1.8-8.8c2.6-9.5-2.5-15.1-12.3-14.9
						c-5.1,0.1-9,2.9-12.5,5.6c-5.7,4.4-10.5,4.6-15.4-0.6c-1.7-0.5-3.4-1.1-5.1-1.6c-15.1-4.5-25.8-0.6-30.2,15.7
						c-16.7,23,8.2,62.4-30.3,76.8c-7.8,3.8-15.6,7.7-23.3,11.5c-0.3,2.1-1.4,2.9-3.4,2c-43.6-19.3-9.3,31.1-30,33.5
						c-19.4,2.3-29.1,13.7-17.4,31.8c11.6,18,26.7,12.5,40.1,0c3.6,6.1,10.8,4.3,16,7.1c11,6,21.6,5,25.7-1.6c5-8.1,2.5-17.1-7.5-26
						c-6.1-5.5-8.5-11.1-2.3-18c3-4.2,8.6-4.7,12.5-7.8c10.1,1.4,18.6,10.8,31.3,2.6c8.1-5.2,11.1-11.3,14.8-18.5
						c0.4-0.3,0.8-0.6,1.2-1c3-3.4,6.3-6.3,9-10.1c2.8-4,8.4-5.7,14-5.4c-6,1.2-7.5,7.3-4.5,18.8l0,0c2.1,21.5,8.6,40.6,28,52.9
						l0,0.2c13.8,3.4,27.5,6.8,41.3,10.2c5.9-8.7,3-30,24.2-17.1C973.7,13.4,975.8,12.9,977.9,12.4z"/>
				</g>
			</g>
			<path opacity="0.2" d="M902.1,277.4c-191.7-47.3-326.6-205.9-353-390c-14.7,25-26.2,52.5-33.5,82.1
				c-40.5,164.2,59.7,330.2,224,370.7c91.2,22.5,182.9,1.6,253.3-49.6C962.9,289.1,932.5,284.9,902.1,277.4z"/>
		</g>
	</g>
	<g clip-path="url(#SVGID_1_)">
		<g>
			<polygon fill="#D6C100" points="453.9,178.7 456.2,185.3 462.9,187.6 456.2,189.9 453.9,196.5 451.6,189.9 445,187.6 
				451.6,185.3 			"/>
			<polygon fill="#D6C100" points="336.5,212.6 339.4,221 347.8,224 339.4,226.9 336.5,235.3 333.5,226.9 325.1,224 333.5,221 			
				"/>
			<polygon fill="#D6C100" points="371,148.3 372.3,151.8 375.8,153 372.3,154.3 371,157.8 369.8,154.3 366.3,153 369.8,151.8 			
				"/>
			<polygon fill="#BBC3C6" points="391.3,194.8 392.5,198.3 396,199.6 392.5,200.8 391.3,204.3 390,200.8 386.5,199.6 390,198.3 			
				"/>
			<polygon fill="#BBC3C6" points="436.7,236.5 437.9,240.1 441.4,241.3 437.9,242.5 436.7,246.1 435.4,242.5 431.9,241.3 
				435.4,240.1 			"/>
			<polygon fill="#BBC3C6" points="433.6,127.4 434.8,131 438.4,132.2 434.8,133.4 433.6,137 432.4,133.4 428.8,132.2 432.4,131 			
				"/>
		</g>
		<g>
			<path fill="#23B294" d="M917,369l-1.3-34.6c2.2-9.6-3.8-19.1-13.4-21.3c-9.6-2.2-19.2,3.8-21.3,13.4l-15,42.5H917z"/>
			<path opacity="0.12" fill="#030000" d="M896.9,369c3.6-24,6.4-53.7,1.4-56.3c-8.1,0-15.4,5.6-17.3,13.8l-15,42.5H896.9z"/>
			<g>
				<g>
					<path fill="#F4CCA1" d="M869.3,273.1c3.4,17.7,23.5,31.4,23.5,31.4l3,12c0,0,0.8,2.7,5.2,3s5.9-0.1,6.8-1s-0.2-14.4,2.5-14.9
						c18.7-3.6,28.1-21.2,26.7-43.3c-1.4-22.7-22.8-37.5-41.5-34C876.8,229.8,865.1,250.8,869.3,273.1z"/>
					<circle fill="#F4CCA1" cx="936.3" cy="278.6" r="5.7"/>
					<path fill="#755549" d="M923.9,254.4c-4.4,0.7-6,4.5-6,4.5s2.1-1.3,5.6-2.1c3.5-0.8,5.9-0.1,5.9-0.1S928.4,253.8,923.9,254.4z"
						/>
					<circle fill="#323333" cx="924.9" cy="264.5" r="2.7"/>
				</g>
				<path fill="#755549" d="M935.1,241.5c0,0-12.5,8.5-20.6,11.1c-8.1,2.6-21.1,18.8-21.1,18.8l3.9,50.4l-37.8-9.8
					c0,0,9.5-43,8.4-56.3c-1.1-13.4,7.2-30,28-33.9C924.8,216.3,935.1,241.5,935.1,241.5z"/>
			</g>
			<ellipse fill="#F4CCA1" cx="895.4" cy="271.7" rx="4" ry="6.5"/>
			<g>
				<path fill="#F4CCA1" d="M913.1,369c-2.2-3-4.9-7.4-6.9-12.6c-4-11-1-25-3.9-26.7c-2.8-1.6-8.3,3.2-8.3,3.2
					c-4.4,4.4-4.4,22.1,3.2,36.1H913.1z"/>
			</g>
		</g>
		<g>
			<g>
				<polygon fill="#223D72" points="775.7,369 776,332.3 820.5,355 815.7,369 				"/>
				<path fill="#E67E22" d="M771.9,349.4l1.3-54.1c-2.2-9.6,3.8-19.2,13.4-21.3c9.6-2.2,19.2,3.8,21.3,13.4l16.8,70.2L771.9,349.4z"
					/>
				<path opacity="0.12" fill="#030000" d="M789.9,352.2c-3.6-24.4-4.1-76,0.9-78.6c8.1,0,15.4,5.6,17.3,13.9l16.8,70.2L789.9,352.2
					z"/>
				<g>
					<g>
						<path fill="#F4CCA1" d="M819.7,234c-3.4,17.7-23.5,31.4-23.5,31.4l-3,12c0,0-0.8,2.7-5.2,3s-5.9-0.1-6.8-1
							c-0.9-0.9,0.2-14.4-2.5-14.9c-18.7-3.6-28.1-21.2-26.7-43.3c1.4-22.7,22.8-37.5,41.5-34C812.2,190.7,823.9,211.7,819.7,234z"
							/>
						<circle fill="#F4CCA1" cx="752.7" cy="239.4" r="5.7"/>
						<path fill="#755549" d="M765.1,215.3c4.4,0.7,6,4.5,6,4.5s-2.1-1.3-5.6-2.1c-3.5-0.8-5.9-0.1-5.9-0.1S760.6,214.7,765.1,215.3
							z"/>
						<circle fill="#323333" cx="764.1" cy="225.4" r="2.7"/>
					</g>
					<path fill="#755549" d="M794.5,225.5c-4.2-8.8-17.5-15.6-22.5-16.6c-12.5-2.4-29.5-12.6-29.5-12.6s14.4,3.6,16,0
						c1.6-3.6-19-19.6-19-19.6s11.6,5.1,25.8,6.8c14.2,1.7,45.5-2.6,55.2,8.9c11.1,13.2-3.1,52-3.1,52s-2.2,4.8-3.2,6.8
						c-2.8,5.6-5.1,9.2-5.1,9.2S798.7,234.2,794.5,225.5z"/>
				</g>
				<ellipse fill="#F4CCA1" cx="797.6" cy="232.2" rx="4" ry="6.5"/>
			</g>
			<g>
				<path fill="#F4CCA1" d="M768.2,369c3-6,8.6-9.9,11.2-20.2c5.3-21.6-8.4-53,2.9-57.3c11.3-4.3,16.1,5.3,16.1,5.3
					c5.8,8.6,0.5,45.2-9.4,72.2H768.2z"/>
			</g>
		</g>
	</g>
</g>
<g>
</g>
<g>
</g>
<g>
</g>
<g>
</g>
<g>
</g>
<g>
</g>
<g>
</g>
<g>
</g>
<g>
</g>
<g>
</g>
<g>
</g>
<g>
</g>
<g>
</g>
<g>
</g>
<g>
</g>
</svg>
